<svg xmlns="http://www.w3.org/2000/svg" xmlns:xlink="http://www.w3.org/1999/xlink" aria-hidden="true" focusable="false"
  width="50px" height="50px"
  style="-ms-transform: rotate(360deg); -webkit-transform: rotate(360deg); transform: rotate(360deg);"
  preserveAspectRatio="xMidYMid meet" viewBox="0 0 256 256">
  <path d="M216 216l-29.333-24l-29.334 24L128 192l-29.333 24l-29.334-24L40 216v-96a88 88 0 0 1 176 0z" opacity=".2"
    fill="#626262" />
  <path
    d="M112 116a12 12 0 1 1-12-12a12 12 0 0 1 12 12zm44-12a12 12 0 1 0 12 12a12 12 0 0 0-12-12zm68 16v96a8 8 0 0 1-13.065 6.191l-24.268-19.855l-24.269 19.855a7.999 7.999 0 0 1-10.131 0L128 202.336l-24.267 19.855a8 8 0 0 1-10.131 0l-24.269-19.855l-24.268 19.855A8 8 0 0 1 32 216v-96a96 96 0 0 1 192 0zm-16 0a80 80 0 0 0-160 0v79.118l16.267-13.31a8 8 0 0 1 10.131 0l24.269 19.856l24.268-19.855a7.998 7.998 0 0 1 10.13 0l24.268 19.855l24.269-19.855a8 8 0 0 1 10.131 0L208 199.119z"
    fill="#626262" />
  <rect x="0" y="0" width="256" height="256" fill="rgba(0, 0, 0, 0)" /></svg>
